<svg xmlns="http://www.w3.org/2000/svg" viewBox="0 0 585.79 495.12"><defs><style>.cls-1{fill:#7c3aed;}</style></defs><g id="Camada_2" data-name="Camada 2"><g id="Camada_1-2" data-name="Camada 1"><path class="cls-1" d="M0,264.55V48.28c1.73-.26,2.06-1.54,2.58-3C13.5,14.66,34.33,0,67.08,0Q236.31,0,405.55.05a66,66,0,0,1,11.07.72C448.37,6.19,469.4,32,469.43,65.54q.09,90.79,0,181.59c0,39.18-26.73,65.8-66.05,65.84q-88.32.09-176.64-.08c-5,0-8.34,1.68-11.74,5.11-24,24.27-48.25,48.37-72.4,72.52-6.58,6.58-14.3,9.13-23.05,5.33s-12.15-11-12-20.37c.19-18.53-.11-37.06.17-55.59.08-5.12-.85-7.25-6.64-7.05-13,.45-25.94.25-38.91,0-27.67-.47-50.34-17.22-59.08-43.37C2.43,267.64,2.56,265.24,0,264.55Z"/><path class="cls-1" d="M585.79,386.9c-2.49.64-2.54,3-3.35,4.8C572.38,414,555.06,425.44,530.65,426c-8.85.21-17.72.24-26.56-.08-4.44-.16-5.6,1.45-5.53,5.65q.33,20.69.07,41.38c-.15,12.41-6.16,20.12-16.66,21.86-7.56,1.26-13.54-1.67-18.81-7-19-19.13-38.2-38.06-57.09-57.3-3.36-3.42-6.74-4.57-11.36-4.56q-72,.19-143.92.06c-25.6,0-46.86-16.35-53.49-40.5-.93-3.41-.63-5.64,2-8.16q15.44-15.11,30.48-30.63c2.61-2.7,5.45-3,8.83-3q82.77.08,165.53.05c55.15,0,96-40.79,96-95.89,0-26.15.12-52.3-.1-78.44,0-4.89.94-7,6.37-6.71,8.62.46,17.29-.11,25.93.18,23.77.79,40.26,12.47,50.07,34,.78,1.73.63,4.29,3.39,4.63Z"/></g></g></svg>